<svg id="Layer_1" data-name="Layer 1" xmlns="http://www.w3.org/2000/svg" viewBox="0 0 250 100"><defs><style>.cls-1{fill:#f90808;}</style></defs><path class="cls-1" d="M101.65,27c.71,0,1.28-.1,1.84-.1,6.88,0,13.76,0,20.65,0,1,0,1.35.26,1.34,1.32-.06,7,0,13.9-.06,20.85v1c1-.94,1.78-1.69,2.56-2.46Q138.14,37.5,148.3,27.44a2,2,0,0,1,1.3-.54c7.1,0,14.19,0,21.29-.06.71,0,1.24,0,1.24,1-.06,7.24-.06,14.48-.09,21.72a5.75,5.75,0,0,1-.08.64H148.84V73.05h-23.5V50.24c-1.51,1.44-2.83,2.68-4.13,3.95q-9.46,9.16-18.94,18.31a2.38,2.38,0,0,1-1.5.6c-7.21,0-14.41,0-21.62.07-1,0-1.28-.25-1.28-1.26,0-6.73,0-13.47,0-20.21V50.17h23.75Z"/></svg>