<svg xmlns="http://www.w3.org/2000/svg" viewBox="0 0 100 100">
  <rect width="100" height="100" rx="18" fill="#f90808"/>
  <g transform="translate(8, 30) scale(0.35)">
    <path fill="white" d="M16.73,37.64c.38,0,.69,0,1,0,3.69,0,7.38,0,11.07,0,.55,0,.73.14.72.71,0,3.73,0,7.46,0,11.19,0,.13,0,.26,0,.55.53-.5,1-.9,1.38-1.32,3.63-3.6,7.25-7.21,10.9-10.8a1.05,1.05,0,0,1,.69-.29c3.81,0,7.62,0,11.42,0,.38,0,.67,0,.67.52,0,3.88,0,7.77,0,11.65a3.12,3.12,0,0,1,0,.35H42.05V62.37H29.44V50.13c-.81.77-1.52,1.44-2.22,2.12-3.38,3.27-6.76,6.56-10.16,9.82a1.24,1.24,0,0,1-.8.32c-3.87,0-7.73,0-11.6,0-.52,0-.68-.13-.68-.68,0-3.61,0-7.22,0-10.84v-.82H16.73Z"/>
    <path fill="white" d="M96.88,54.6V53.52c0-3.92,0-7.84,0-11.75,0-.78.25-1,1.06-1a15.87,15.87,0,0,0,2.67,0c.9-.09,1.2.17,1.19,1,0,2.87,0,5.73,0,8.59,0,3.1,0,6.21,0,9.31,0,.76-.25,1-1,1-4.16,0-4.15,0-7.48-2.4q-8.05-5.91-16.14-11.79c-.23-.17-.49-.31-.93-.6V60.65H71.77c-.69,0-.54-.51-.54-.9,0-3.38,0-6.75,0-10.13,0-2.62,0-5.24,0-7.86,0-.76.26-1,1-1,.48,0,1,0,1.45,0,4.07,0,4,0,7.31,2.4,5,3.61,9.92,7.17,14.89,10.75C96.12,54.14,96.41,54.3,96.88,54.6Z"/>
  </g>
</svg>
