<svg id="Layer_1" data-name="Layer 1" xmlns="http://www.w3.org/2000/svg" viewBox="0 0 250 100"><defs><style>.cls-1{fill:#f90808;}</style></defs><path class="cls-1" d="M16.73,37.64c.38,0,.69,0,1,0,3.69,0,7.38,0,11.07,0,.55,0,.73.14.72.71,0,3.73,0,7.46,0,11.19,0,.13,0,.26,0,.55.53-.5,1-.9,1.38-1.32,3.63-3.6,7.25-7.21,10.9-10.8a1.05,1.05,0,0,1,.69-.29c3.81,0,7.62,0,11.42,0,.38,0,.67,0,.67.52,0,3.88,0,7.77,0,11.65a3.12,3.12,0,0,1,0,.35H42.05V62.37H29.44V50.13c-.81.77-1.52,1.44-2.22,2.12-3.38,3.27-6.76,6.56-10.16,9.82a1.24,1.24,0,0,1-.8.32c-3.87,0-7.73,0-11.6,0-.52,0-.68-.13-.68-.68,0-3.61,0-7.22,0-10.84v-.82H16.73Z"/><path class="cls-1" d="M96.88,54.6V53.52c0-3.92,0-7.84,0-11.75,0-.78.25-1,1.06-1a15.87,15.87,0,0,0,2.67,0c.9-.09,1.2.17,1.19,1,0,2.87,0,5.73,0,8.59,0,3.1,0,6.21,0,9.31,0,.76-.25,1-1,1-4.16,0-4.15,0-7.48-2.4q-8.05-5.91-16.14-11.79c-.23-.17-.49-.31-.93-.6V60.65H71.77c-.69,0-.54-.51-.54-.9,0-3.38,0-6.75,0-10.13,0-2.62,0-5.24,0-7.86,0-.76.26-1,1-1,.48,0,1,0,1.45,0,4.07,0,4,0,7.31,2.4,5,3.61,9.92,7.17,14.89,10.75C96.12,54.14,96.41,54.3,96.88,54.6Z"/><path class="cls-1" d="M137.82,51.17a.31.31,0,0,0,.1-.34.31.31,0,0,0-.1-.16l-9.73-8-.09-.07-1.38-1.14a.32.32,0,0,1,0-.48.29.29,0,0,1,.23-.09H133a2.67,2.67,0,0,1,1.54.55c2.07,1.61,7,5.62,7,5.62a1.85,1.85,0,0,0,1.2.57,1.93,1.93,0,0,0,1.26-.57c.28-.25,5.26-4.23,7-5.62a2.67,2.67,0,0,1,1.54-.55h6.15A1.35,1.35,0,0,1,159,41a.32.32,0,0,1,0,.48l-1.59,1.31-9.61,7.91a.31.31,0,0,0-.1.16.3.3,0,0,0,.11.34L157.47,59l.09.07L159,60.22a.33.33,0,0,1-.2.58h-4.92l-1.28,0a2.61,2.61,0,0,1-1.54-.56c-2.07-1.61-7-5.62-7-5.62a1.9,1.9,0,0,0-1.2-.57,1.93,1.93,0,0,0-1.26.57c-.28.26-5.26,4.23-7,5.62a2.61,2.61,0,0,1-1.54.56l-1.33,0h-4.87a.33.33,0,0,1-.2-.58l1.64-1.32Z"/><path class="cls-1" d="M246.21,60.8h-4.92l-1.28,0a2.61,2.61,0,0,1-1.54-.56c-2.07-1.61-7-5.62-7-5.62a1.9,1.9,0,0,0-1.2-.57,1.93,1.93,0,0,0-1.26.57c-.28.26-5.26,4.23-7,5.62a2.61,2.61,0,0,1-1.54.56l-1.33,0h-4.87a.33.33,0,0,1-.2-.58l1.64-1.32,9.61-7.73a.31.31,0,0,0,.1-.34.31.31,0,0,0-.1-.16l-9.73-8-.09-.07L214,41.45a.32.32,0,0,1,0-.48.28.28,0,0,1,.22-.09h6.15a2.67,2.67,0,0,1,1.54.55c2.07,1.61,7,5.62,7,5.62a1.85,1.85,0,0,0,1.2.57,1.93,1.93,0,0,0,1.26-.57c.28-.25,5.26-4.23,7-5.62a2.67,2.67,0,0,1,1.54-.55h6.15a1.35,1.35,0,0,1,.22.09.32.32,0,0,1,0,.48l-1.59,1.31-9.61,7.91a.31.31,0,0,0-.1.16.31.31,0,0,0,.1.34L244.89,59l.09.07,1.43,1.15A.33.33,0,0,1,246.21,60.8Z"/><path class="cls-1" d="M194.48,60.92a.48.48,0,0,1,.17.37.49.49,0,0,1-.48.39l-.95,0c-2.67,0-4.59,0-4.79,0a1.5,1.5,0,0,1-.49,0,1.9,1.9,0,0,1-.48-.2,3.5,3.5,0,0,1-.54-.37c-.18-.14-.42-.33-.69-.57l-1.15-1.06-2.79-2.53-1.59-1.45h0a2.14,2.14,0,0,0-.37-.34,2.2,2.2,0,0,0-.46-.24,1.43,1.43,0,0,0-.42-.1h-.12c-1.28-.12-4.76,0-7.39,0h-.05a3.52,3.52,0,0,1-1.54-.61c-1.36-1-2.64-2.11-4-3.17a.21.21,0,0,1,0-.14.34.34,0,0,1,0-.12.49.49,0,0,1,.28-.09h20a2.17,2.17,0,0,0,2.46-2.09c.12-1.77-.65-2.6-2.43-2.6-4.85,0-9.7,0-14.55,0a3.37,3.37,0,0,1-1.8-.63c-1.36-1-2.64-2.1-4-3.16a.26.26,0,0,1,0-.15.27.27,0,0,1,0-.11.68.68,0,0,1,.41-.1h4.87c5.47,0,10.94.05,16.41,0,3.41-.05,6.75,2.32,6.21,7.18a6.33,6.33,0,0,1-1.47,3.59,6.83,6.83,0,0,1-3.93,2.07l-1.21.24.14.13,1.13,1c1.42,1.3,2.81,2.64,4.65,4.24Z"/><path class="cls-1" d="M117.91,59.89v0c0,.63-.15,1-.8,1h-4.24c-.65,0-.79-.33-.79-1v-19L115,43.41l2.37,2.06a1.48,1.48,0,0,1,.31.37,1.27,1.27,0,0,1,.15.34,1.49,1.49,0,0,1,.06.35C117.91,51,117.89,55.44,117.91,59.89Z"/><path class="cls-1" d="M207.32,59.89v0c0,.63-.14,1-.8,1h-.36c-.59,0-1.17,0-1.76,0l-1.75,0h-.37c-.65,0-.79-.33-.79-1v-19l2.91,2.53,2.38,2.06a1.46,1.46,0,0,1,.3.37,1.27,1.27,0,0,1,.15.34,1.79,1.79,0,0,1,.07.35C207.33,51,207.3,55.44,207.32,59.89Z"/></svg>